<?xml version="1.0" encoding="UTF-8"?>
<svg id="_Слой_2" data-name="Слой_2" xmlns="http://www.w3.org/2000/svg" viewBox="0 0 704.05 356.04">
  <defs>
    <style type="text/css">
      .cls-1 {
        fill: #fff;
        fill-rule: evenodd;
      }
    </style>
  </defs>
  <g id="_Слой_1-2" data-name="Слой_1">
    <g>
      <path class="cls-1" d="M454.86,80.72l217.94-2.28c10.41-2.36,31.24-13.74,31.24-40.36S681.11,1.6,669.64,0H79.69c-7.39,0-11.01,6.75-11.89,10.12-1.94,9.53-6.6,32.49-9.74,48.08s5.19,20.16,9.74,20.5h290.55c12.04,0,13.84,9.53,13.24,14.3-3.31,8.17-6.03,23.87-6.03,52.13,0,54.05,47.9,71.36,71.85,73.26h179.36c12.4,0,15.18,10,15.94,15.18.76,5.19,0,12.91-4.3,25.68-3.44,10.22-15.1,16.15-20.49,17.84H15.68c-10.25,0-15.68,31.12-15.68,53.52,0,17.92,15.01,24.42,22.52,25.43h552.76c35.52,0,58.06-9.53,64.89-14.3,21.29-11.47,63.88-51.07,63.88-117.67s-47.56-84.18-71.34-84.65h-166.71c-10.2,1.81-30.61-.18-30.61-22.65s12.99-33.4,19.48-36.06Z"/>
      <path class="cls-1" d="M268.79,218.38c12.27-1.65,36.81-12.05,36.81-40.49s-15.26-35.81-22.89-35.93H51.48c-7.89,0-14.42,9.53-16.7,14.3-1.35,3.71-4.63,15.87-6.96,34.79-2.33,18.93,14.8,26.11,23.65,27.33h217.31Z"/>
    </g>
  </g>
</svg>